# File created by Blade
# Date/Time:  Mon Sep 22 15:50:36 2014
# Frame Rate: 120.000 fps
#------------------------------------------------------
:FULLY-SPECIFIED
:DEGREES
2318
root 2.242631 37.122478 3.410163 1.003178 -6.778555 0.830225
RightUpLeg 6.614617 -3.386783 -3.103678
RightLeg -4.188813 -0.000000 0.000000
RightFoot -11.703784 -14.015060 16.606658
RightToeBase 14.290550 -0.000000 -0.000000
LeftUpLeg 7.514733 4.488321 1.812231
LeftLeg -3.853900 -0.000000 0.000000
LeftFoot -10.263201 15.254170 -18.257970
LeftToeBase 9.672052 -0.000000 -0.000000
Spine -1.108048 -1.926075 -2.205058
RightShoulder 6.815359 -24.867950 -11.933857
RightArm 23.641534 -26.771490 64.685565
RightForeArm 14.199807 -0.000000 33.145988
RightHand 3.459815 -0.000000 -0.670631
RightHandThumb1 -24.326973 -0.000000 -32.862282
LeftShoulder -20.274745 20.570261 24.426798
LeftArm 103.412407 -75.221300 -116.930211
LeftForeArm -56.149581 -0.000000 -5.835127
LeftHand -19.124672 0.000000 10.673583
LeftHandThumb1 -26.253704 0.000000 33.147579
Head 16.969058 20.465806 12.207623
2319
root 2.256150 37.121182 3.404546 1.002047 -6.631309 0.837640
RightUpLeg 6.591580 -3.504574 -3.133876
RightLeg -4.115957 -0.000000 0.000000
RightFoot -11.749566 -14.000660 16.618826
RightToeBase 14.310757 -0.000000 -0.000000
LeftUpLeg 7.483478 4.442251 1.793202
LeftLeg -3.851005 -0.000000 0.000000
LeftFoot -10.180118 15.169967 -18.122476
LeftToeBase 9.487110 -0.000000 -0.000000
Spine -1.074193 -2.170088 -2.069847
RightShoulder 6.852495 -24.756685 -11.976888
RightArm 23.605299 -26.584546 64.807656
RightForeArm 14.091664 -0.000000 32.821794
RightHand 3.465583 -0.000000 -0.860176
RightHandThumb1 -24.326973 -0.000000 -32.862282
LeftShoulder -20.534900 20.829406 24.707764
LeftArm 107.206032 -74.168591 -122.445735
LeftForeArm -56.616418 0.000000 -7.093996
LeftHand -21.979953 0.000000 17.171377
LeftHandThumb1 -26.253704 0.000000 33.147579
Head 16.924274 20.739185 12.063981
2320
root 2.272226 37.120872 3.397860 1.001592 -6.518012 0.850619
RightUpLeg 6.559994 -3.601990 -3.165803
RightLeg -4.050829 -0.000000 0.000000
RightFoot -11.780679 -14.015927 16.609925
RightToeBase 14.318077 -0.000000 -0.000000
LeftUpLeg 7.456238 4.421456 1.763561
LeftLeg -3.855700 -0.000000 0.000000
LeftFoot -10.147945 15.101468 -18.047092
LeftToeBase 9.550803 -0.000000 -0.000000
Spine -1.037541 -2.304939 -1.921821
RightShoulder 6.766301 -24.716762 -11.964656
RightArm 23.705406 -26.385702 64.868166
RightForeArm 14.071785 0.000000 32.387885
RightHand 3.491488 -0.000000 -1.030488
RightHandThumb1 -24.326973 -0.000000 -32.862282
LeftShoulder -20.777169 21.194478 24.776963
LeftArm 110.794123 -72.971425 -127.887720
LeftForeArm -57.284195 -0.000000 -7.657783
LeftHand -24.157889 -0.000000 23.073058
LeftHandThumb1 -26.253704 0.000000 33.147579
Head 16.856812 21.002523 11.898559
2321
root 2.290733 37.122264 3.391443 0.981753 -6.410101 0.860891
RightUpLeg 6.556493 -3.700811 -3.208415
RightLeg -3.992147 -0.000000 0.000000
RightFoot -11.795404 -13.964530 16.666952
RightToeBase 14.258754 -0.000000 -0.000000
LeftUpLeg 7.450477 4.375394 1.731327
LeftLeg -3.868793 -0.000000 0.000000
LeftFoot -10.164456 15.066157 -18.104796
LeftToeBase 9.688874 -0.000000 -0.000000
Spine -0.973167 -2.425104 -1.758628
RightShoulder 6.666496 -24.617422 -11.891464
RightArm 23.691354 -26.090334 64.969725
RightForeArm 14.011652 -0.000000 31.963853
RightHand 3.501412 -0.000000 -1.237964
RightHandThumb1 -24.326973 -0.000000 -32.862282
LeftShoulder -20.998696 21.514836 24.660093
LeftArm 113.613576 -71.838120 -132.649720
LeftForeArm -57.306697 -0.000000 -7.623624
LeftHand -26.282146 -0.000000 29.076929
LeftHandThumb1 -26.253704 0.000000 33.147579
Head 16.796896 21.326058 11.745282
2322
root 2.313283 37.124918 3.383569 0.976950 -6.315508 0.883813
RightUpLeg 6.524248 -3.750839 -3.252461
RightLeg -3.933876 -0.000000 0.000000
RightFoot -11.819536 -14.042967 16.663234
RightToeBase 14.263866 -0.000000 -0.000000
LeftUpLeg 7.418660 4.338988 1.676745
LeftLeg -3.860396 -0.000000 0.000000
LeftFoot -10.127855 15.040447 -18.043503
LeftToeBase 9.701274 -0.000000 -0.000000
Spine -0.933360 -2.519756 -1.584008
RightShoulder 6.548294 -24.522528 -11.791541
RightArm 23.661062 -25.808280 65.059612
RightForeArm 14.045493 -0.000000 31.537112
RightHand 3.533487 -0.000000 -1.499354
RightHandThumb1 -24.326973 -0.000000 -32.862282
LeftShoulder -21.249577 21.822953 24.304808
LeftArm 115.770543 -70.723278 -136.739558
LeftForeArm -56.891099 -0.000000 -7.128825
LeftHand -27.772498 -0.000000 33.113830
LeftHandThumb1 -26.253704 0.000000 33.147579
Head 16.774624 21.684460 11.585375
2323
root 2.338034 37.125960 3.374782 0.982618 -6.241252 0.917564
RightUpLeg 6.485994 -3.792779 -3.317073
RightLeg -3.889386 -0.000000 0.000000
RightFoot -11.843325 -14.077233 16.672223
RightToeBase 14.300792 -0.000000 -0.000000
LeftUpLeg 7.378554 4.325207 1.611951
LeftLeg -3.853700 -0.000000 0.000000
LeftFoot -10.041315 14.980204 -17.928323
LeftToeBase 9.604907 -0.000000 -0.000000
Spine -0.907429 -2.577073 -1.394447
RightShoulder 6.422369 -24.428331 -11.691897
RightArm 23.588996 -25.427501 65.221337
RightForeArm 14.058967 -0.000000 31.089475
RightHand 3.583641 -0.000000 -1.599628
RightHandThumb1 -24.326973 -0.000000 -32.862282
LeftShoulder -21.469182 22.017202 23.806968
LeftArm 116.725110 -69.872609 -139.498939
LeftForeArm -56.120858 -0.000000 -6.569301
LeftHand -28.725514 -0.000000 34.676862
LeftHandThumb1 -26.253704 0.000000 33.147579
Head 16.740654 22.076179 11.364375
2324
root 2.364395 37.125767 3.367151 0.977097 -6.170797 0.971791
RightUpLeg 6.466281 -3.804694 -3.403873
RightLeg -3.860514 -0.000000 0.000000
RightFoot -11.872563 -14.128282 16.673059
RightToeBase 14.283313 -0.000000 -0.000000
LeftUpLeg 7.355282 4.289865 1.526791
LeftLeg -3.863553 -0.000000 0.000000
LeftFoot -10.049822 14.942249 -17.996879
LeftToeBase 9.755408 -0.000000 -0.000000
Spine -0.874211 -2.624509 -1.219588
RightShoulder 6.350111 -24.284395 -11.612180
RightArm 23.404597 -25.023545 65.467065
RightForeArm 14.137789 0.000000 30.660847
RightHand 3.656410 -0.000000 -1.902228
RightHandThumb1 -24.326973 -0.000000 -32.862282
LeftShoulder -21.715320 22.336370 23.113150
LeftArm 117.201601 -69.061976 -141.576166
LeftForeArm -55.502996 -0.000000 -6.080944
LeftHand -28.827183 -0.000000 34.014991
LeftHandThumb1 -26.253704 0.000000 33.147579
Head 16.712845 22.491887 11.150024
2325
root 2.390406 37.123852 3.360733 0.959435 -6.116802 1.031700
RightUpLeg 6.462323 -3.811816 -3.494297
RightLeg -3.839455 -0.000000 0.000000
RightFoot -11.925928 -14.183134 16.664392
RightToeBase 14.321338 -0.000000 -0.000000
LeftUpLeg 7.351415 4.244235 1.436780
LeftLeg -3.874766 -0.000000 0.000000
LeftFoot -10.049333 14.897763 -18.028036
LeftToeBase 9.794154 -0.000000 -0.000000
Spine -0.829709 -2.656034 -1.046377
RightShoulder 6.302066 -24.184837 -11.537897
RightArm 23.240727 -24.605764 65.691848
RightForeArm 14.366296 0.000000 30.243292
RightHand 3.812285 0.000000 -2.335913
RightHandThumb1 -24.326973 -0.000000 -32.862282
LeftShoulder -21.932021 22.662188 22.336055
LeftArm 116.841785 -68.464296 -142.627057
LeftForeArm -55.269963 -0.000000 -5.742974
LeftHand -28.256265 0.000000 31.571336
LeftHandThumb1 -26.253704 0.000000 33.147579
Head 16.659886 22.802290 10.864813
2326
root 2.416473 37.120362 3.353564 0.948298 -6.055456 1.118403
RightUpLeg 6.463662 -3.798498 -3.604412
RightLeg -3.852192 -0.000000 0.000000
RightFoot -11.984037 -14.289426 16.631795
RightToeBase 14.329769 -0.000000 -0.000000
LeftUpLeg 7.328491 4.198018 1.316712
LeftLeg -3.871551 -0.000000 0.000000
LeftFoot -10.028383 14.868550 -18.019724
LeftToeBase 9.758216 -0.000000 -0.000000
Spine -0.795177 -2.641090 -0.919292
RightShoulder 6.211318 -24.109376 -11.423461
RightArm 23.081852 -24.183047 65.905370
RightForeArm 14.748269 0.000000 29.817269
RightHand 3.841066 -0.000000 -2.511844
RightHandThumb1 -24.326973 -0.000000 -32.862282
LeftShoulder -21.974289 22.895736 21.582094
LeftArm 116.025640 -68.210156 -142.990597
LeftForeArm -55.629337 0.000000 -5.587215
LeftHand -27.482753 -0.000000 28.184372
LeftHandThumb1 -26.253704 0.000000 33.147579
Head 16.585338 22.948550 10.588089
2327
root 2.446185 37.116108 3.344251 0.946089 -5.989963 1.219071
RightUpLeg 6.455566 -3.822849 -3.734713
RightLeg -3.870784 -0.000000 0.000000
RightFoot -12.039568 -14.373244 16.572585
RightToeBase 14.385426 -0.000000 -0.000000
LeftUpLeg 7.284505 4.170657 1.178377
LeftLeg -3.853951 -0.000000 0.000000
LeftFoot -10.008618 14.817950 -17.983245
LeftToeBase 9.760388 -0.000000 -0.000000
Spine -0.782631 -2.659030 -0.807566
RightShoulder 6.241858 -23.922644 -11.357267
RightArm 22.732095 -23.744982 66.240441
RightForeArm 15.061071 -0.000000 29.408321
RightHand 4.038710 -0.000000 -2.902380
RightHandThumb1 -24.326973 -0.000000 -32.862282
LeftShoulder -21.998499 23.236706 20.692919
LeftArm 114.187885 -68.160207 -141.835575
LeftForeArm -56.575524 -0.000000 -5.786259
LeftHand -26.499393 -0.000000 26.394532
LeftHandThumb1 -26.253704 0.000000 33.147579
Head 16.534952 23.073418 10.319409
2328
root 2.473079 37.110764 3.336974 0.934520 -5.946508 1.311240
RightUpLeg 6.481305 -3.794571 -3.859839
RightLeg -3.929396 -0.000000 0.000000
RightFoot -12.097103 -14.453267 16.558342
RightToeBase 14.448024 -0.000000 -0.000000
LeftUpLeg 7.267272 4.180385 1.057252
LeftLeg -3.853074 -0.000000 0.000000
LeftFoot -9.998685 14.735016 -17.970522
LeftToeBase 9.791716 -0.000000 -0.000000
Spine -0.758098 -2.609742 -0.716076
RightShoulder 6.249038 -23.829056 -11.275323
RightArm 22.504121 -23.413732 66.428560
RightForeArm 15.607688 -0.000000 28.972257
RightHand 4.207240 -0.000000 -3.092560
RightHandThumb1 -24.326973 -0.000000 -32.862282
LeftShoulder -21.890061 23.487517 19.880872
LeftArm 111.638259 -68.339523 -139.788495
LeftForeArm -57.459752 -0.000000 -5.994957
LeftHand -26.117470 -0.000000 24.551592
LeftHandThumb1 -26.253704 0.000000 33.147579
Head 16.455768 23.069876 10.085899
2329
root 2.498420 37.103282 3.330879 0.919842 -5.908897 1.414519
RightUpLeg 6.523366 -3.739287 -3.989110
RightLeg -4.013034 -0.000000 0.000000
RightFoot -12.158193 -14.560807 16.520781
RightToeBase 14.492137 -0.000000 -0.000000
LeftUpLeg 7.264752 4.149759 0.925674
LeftLeg -3.867900 -0.000000 0.000000
LeftFoot -9.996694 14.684278 -17.993950
LeftToeBase 9.765795 -0.000000 -0.000000
Spine -0.745877 -2.543783 -0.675434
RightShoulder 6.290221 -23.693437 -11.215140
RightArm 22.232338 -23.182639 66.628224
RightForeArm 16.192646 -0.000000 28.514652
RightHand 4.297219 -0.000000 -3.071898
RightHandThumb1 -24.326973 -0.000000 -32.862282
LeftShoulder -21.751607 23.845644 19.145562
LeftArm 109.686904 -68.377124 -138.362732
LeftForeArm -58.471224 0.000000 -6.172430
LeftHand -26.326960 -0.000000 23.658712
LeftHandThumb1 -26.253704 0.000000 33.147579
Head 16.395777 22.978915 9.921441
